<?xml version="1.0" encoding="UTF-8" standalone="no" ?>
<!DOCTYPE svg PUBLIC "-//W3C//DTD SVG 1.1//EN" "http://www.w3.org/Graphics/SVG/1.1/DTD/svg11.dtd">
<svg xmlns="http://www.w3.org/2000/svg" xmlns:xlink="http://www.w3.org/1999/xlink" version="1.1" width="1080" height="1080" viewBox="0 0 1080 1080" xml:space="preserve">
<desc>Created with Fabric.js 5.2.4</desc>
<defs>
</defs>
<g transform="matrix(1 0 0 1 540 540)" id="75e72c83-91db-4812-859c-e26fa7258797"  >
<rect style="stroke: none; stroke-width: 1; stroke-dasharray: none; stroke-linecap: butt; stroke-dashoffset: 0; stroke-linejoin: miter; stroke-miterlimit: 4; fill: rgb(255,255,255); fill-rule: nonzero; opacity: 1; visibility: hidden;" vector-effect="non-scaling-stroke"  x="-540" y="-540" rx="0" ry="0" width="1080" height="1080" />
</g>
<g transform="matrix(1 0 0 1 540 540)" id="617c31ea-57a0-47d4-83db-35f78f147fcd"  >
</g>
<g transform="matrix(45 0 0 45 540 540)"  >
<path style="stroke: none; stroke-width: 1; stroke-dasharray: none; stroke-linecap: butt; stroke-dashoffset: 0; stroke-linejoin: miter; stroke-miterlimit: 4; fill: rgb(255,255,255); fill-rule: nonzero; opacity: 1;"  transform=" translate(-11.98, -12)" d="M 14.97 16.95 L 10 13.87 L 10 7 L 12 7 L 12 12.76 L 16.03 15.25 L 14.97 16.95 z M 22 12 C 22 17.509999999999998 17.509999999999998 22 12 22 C 6.490000000000002 22 2 17.51 2 12 L 3 12 C 3 16.96 7.04 21 12 21 C 16.96 21 21 16.96 21 12 C 21 7.039999999999999 16.96 3 12 3 C 8.81 3 5.92 4.64 4.28 7.38 C 4.17 7.56 4.0600000000000005 7.75 3.97 7.9399999999999995 L 3.94 8 L 8 8 L 8 9 L 1.96 9 L 1.96 3 L 2.96 3 L 2.96 7.74 C 3 7.65 3.03 7.57 3.07 7.49 C 3.1799999999999997 7.2700000000000005 3.3 7.07 3.42 6.86 C 5.22 3.86 8.51 2 12 2 C 17.509999999999998 2 22 6.49 22 12 z" stroke-linecap="round" />
</g>
</svg>