<?xml version="1.0" encoding="UTF-8" standalone="no" ?>
<!DOCTYPE svg PUBLIC "-//W3C//DTD SVG 1.1//EN" "http://www.w3.org/Graphics/SVG/1.1/DTD/svg11.dtd">
<svg xmlns="http://www.w3.org/2000/svg" xmlns:xlink="http://www.w3.org/1999/xlink" version="1.1" width="1080" height="1080" viewBox="0 0 1080 1080" xml:space="preserve">
<desc>Created with Fabric.js 5.2.4</desc>
<defs>
</defs>
<rect x="0" y="0" width="100%" height="100%" fill="transparent"></rect>
<g transform="matrix(1 0 0 1 540 540)" id="1aca8809-5c25-4da4-82b6-75f9a465d774"  >
<rect style="stroke: none; stroke-width: 1; stroke-dasharray: none; stroke-linecap: butt; stroke-dashoffset: 0; stroke-linejoin: miter; stroke-miterlimit: 4; fill: rgb(255,255,255); fill-rule: nonzero; opacity: 1; visibility: hidden;" vector-effect="non-scaling-stroke"  x="-540" y="-540" rx="0" ry="0" width="1080" height="1080" />
</g>
<g transform="matrix(1 0 0 1 540 540)" id="9d8a844b-ffb3-4a29-8046-9b3a5806d351"  >
</g>
<g transform="matrix(45 0 0 45 540 540)"  >
<path style="stroke: none; stroke-width: 1; stroke-dasharray: none; stroke-linecap: butt; stroke-dashoffset: 0; stroke-linejoin: miter; stroke-miterlimit: 4; fill: rgb(255,255,255); fill-rule: nonzero; opacity: 1;"  transform=" translate(-12, -12)" d="M 10 14.65 L 10 9.350000000000001 L 15 12 L 10 14.65 z M 17.77 10.32 L 16.57 9.82 L 18 9.06 C 19.84 8.100000000000001 20.53 5.83 19.56 4.000000000000001 C 18.589999999999996 2.1700000000000017 16.32 1.470000000000001 14.489999999999998 2.440000000000001 L 6 6.94 C 4.71 7.62 3.93 8.98 4 10.43 C 4.07 11.85 4.93 13.1 6.220000000000001 13.68 C 6.250000000000001 13.69 7.420000000000001 14.18 7.420000000000001 14.18 L 6 14.93 C 4.17 15.9 3.47 18.17 4.4399999999999995 20 C 5.409999999999999 21.83 7.68 22.53 9.51 21.56 L 18.009999999999998 17.06 C 19.299999999999997 16.38 20.069999999999997 15.02 19.999999999999996 13.569999999999999 C 19.929999999999996 12.149999999999999 19.059999999999995 10.889999999999999 17.769999999999996 10.319999999999999 z M 17.54 16.18 L 9.04 20.68 C 7.699999999999999 21.39 6.029999999999999 20.88 5.3199999999999985 19.54 C 4.6099999999999985 18.2 5.119999999999998 16.53 6.459999999999998 15.819999999999999 L 8.499999999999998 14.739999999999998 L 8.499999999999998 13.529999999999998 L 7.809999999999999 13.249999999999998 L 6.699999999999998 12.789999999999997 C 5.709999999999998 12.379999999999997 5.049999999999999 11.439999999999998 4.999999999999998 10.379999999999997 C 4.949999999999998 9.319999999999997 5.519999999999998 8.319999999999997 6.459999999999998 7.819999999999997 L 14.959999999999997 3.3199999999999967 C 16.299999999999997 2.6099999999999968 17.97 3.1199999999999966 18.679999999999996 4.459999999999996 C 19.389999999999997 5.799999999999996 18.879999999999995 7.469999999999996 17.539999999999996 8.179999999999996 L 15.5 9.26 L 15.5 10.469999999999999 L 17.3 11.209999999999999 C 18.29 11.62 18.95 12.559999999999999 19 13.62 C 19.05 14.68 18.48 15.68 17.54 16.18 z" stroke-linecap="round" />
</g>
</svg>